# Blender 3.6.2
# www.blender.org
mtllib Test2.mtl
o 平面
v -1.000000 1.000000 0.000000
v -1.000000 -0.607390 0.000000
v 1.000000 1.000000 0.000000
v 1.000000 -1.000000 0.000000
v 0.333333 0.082183 0.000000
v -0.333333 1.425601 0.000000
v -0.333333 -1.000000 0.000000
v 0.333333 -1.000000 0.000000
vn -0.0000 -0.0000 1.0000
vt 0.000000 0.666667
vt 1.000000 1.000000
vt 0.000000 1.000000
vt 0.000000 0.000000
vt 1.000000 0.333333
vt 0.000000 0.333333
vt 1.000000 0.666667
vt 1.000000 0.000000
s 0
f 5/1/1 4/2/1 3/3/1
f 1/4/1 7/5/1 6/6/1
f 7/5/1 5/1/1 6/6/1
f 5/1/1 8/7/1 4/2/1
f 1/4/1 2/8/1 7/5/1
f 7/5/1 8/7/1 5/1/1
