# Blender 3.6.2
# www.blender.org
mtllib Test.mtl
o 立方体
v -1.000000 1.000000 -1.000000
v -1.000000 1.000000 1.000000
v 1.000000 1.000000 -1.000000
v -1.000000 -1.000000 -1.000000
v -1.000000 -1.000000 1.000000
v 1.000000 -1.000000 -1.000000
v 0.290358 1.000000 1.000000
v 1.000000 1.000000 0.290358
v 1.000000 -1.000000 0.290358
v 0.290358 -1.000000 1.000000
vn 1.0000 -0.0000 -0.0000
vn -0.0000 -1.0000 -0.0000
vn -1.0000 -0.0000 -0.0000
vn -0.0000 -0.0000 -1.0000
vn -0.0000 1.0000 -0.0000
vn 0.7071 -0.0000 0.7071
vn -0.0000 -0.0000 1.0000
vt 0.000000 0.333333
vt 0.000000 0.118274
vt 0.333333 0.118274
vt 0.333333 0.333333
vt 0.333333 0.666667
vt 0.118274 0.666667
vt 0.000000 0.548393
vt -0.000000 0.333333
vt 0.666667 0.333333
vt 0.333333 0.000000
vt 0.666667 -0.000000
vt 0.666667 0.666667
vt 0.333333 0.333333
vt 0.000000 1.000000
vt 0.000000 0.666667
vt 0.215060 0.666667
vt 0.333333 0.784940
vt 0.333333 1.000000
vt 0.000000 0.000000
vt 0.333333 0.000000
vt 0.548393 0.666667
vt 0.548393 1.000000
s 0
f 3/1/1 8/2/1 9/3/1 6/4/1
f 6/5/2 9/6/2 10/7/2 5/8/2 4/4/2
f 4/9/3 5/4/3 2/10/3 1/11/3
f 3/9/4 6/12/4 4/5/4 1/13/4
f 1/14/5 2/15/5 7/16/5 8/17/5 3/18/5
f 7/19/6 10/20/6 9/3/6 8/2/6
f 10/21/7 7/22/7 2/18/7 5/5/7
